<svg width="84" height="125" viewBox="0 0 84 125" fill="none" xmlns="http://www.w3.org/2000/svg">
<g clip-path="url(#clip0_1_137)">
<path d="M41.6666 62.5C41.6666 56.9747 43.8616 51.6756 47.7686 47.7686C51.6756 43.8616 56.9746 41.6667 62.5 41.6667C68.0253 41.6667 73.3243 43.8616 77.2313 47.7686C81.1384 51.6756 83.3333 56.9747 83.3333 62.5C83.3333 68.0253 81.1384 73.3244 77.2313 77.2314C73.3243 81.1384 68.0253 83.3333 62.5 83.3333C56.9746 83.3333 51.6756 81.1384 47.7686 77.2314C43.8616 73.3244 41.6666 68.0253 41.6666 62.5V62.5Z" fill="#1ABCFE"/>
<path d="M0 104.167C0 98.6413 2.19493 93.3423 6.10194 89.4353C10.0089 85.5283 15.308 83.3333 20.8333 83.3333H41.6667V104.167C41.6667 109.692 39.4717 114.991 35.5647 118.898C31.6577 122.805 26.3587 125 20.8333 125C15.308 125 10.0089 122.805 6.10194 118.898C2.19493 114.991 0 109.692 0 104.167H0Z" fill="#0ACF83"/>
<path d="M41.6666 0V41.6667H62.5C68.0253 41.6667 73.3243 39.4717 77.2313 35.5647C81.1384 31.6577 83.3333 26.3587 83.3333 20.8333C83.3333 15.308 81.1384 10.0089 77.2313 6.10194C73.3243 2.19493 68.0253 0 62.5 0L41.6666 0Z" fill="#FF7262"/>
<path d="M0 20.8333C0 26.3587 2.19493 31.6577 6.10194 35.5647C10.0089 39.4717 15.308 41.6667 20.8333 41.6667H41.6667V0H20.8333C15.308 0 10.0089 2.19493 6.10194 6.10194C2.19493 10.0089 0 15.308 0 20.8333H0Z" fill="#F24E1E"/>
<path d="M0 62.5C0 68.0253 2.19493 73.3244 6.10194 77.2314C10.0089 81.1384 15.308 83.3333 20.8333 83.3333H41.6667V41.6667H20.8333C15.308 41.6667 10.0089 43.8616 6.10194 47.7686C2.19493 51.6756 0 56.9747 0 62.5H0Z" fill="#A259FF"/>
</g>
<defs>
<clipPath id="clip0_1_137">
<rect width="83.3333" height="125" fill="white"/>
</clipPath>
</defs>
</svg>
