<?xml version="1.0" encoding="utf-8"?>
<!-- Generator: Adobe Illustrator 26.0.1, SVG Export Plug-In . SVG Version: 6.00 Build 0)  -->
<svg version="1.1" id="Layer_1" xmlns="http://www.w3.org/2000/svg" xmlns:xlink="http://www.w3.org/1999/xlink" x="0px" y="0px"
	 viewBox="0 0 555 603" style="enable-background:new 0 0 555 603;" xml:space="preserve">
<style type="text/css">
	.st0{fill:#00ADB5;}
</style>
<g transform="translate(0.000000,603.000000) scale(0.100000,-0.100000)">
	<path class="st0" d="M2359.3,4279c-237-46-446-202-542-404c-52-108-69-179-76-310c-13-275,99-477,351-628c33-20,257-125,499-234
		l439-198l-177-5l-178-5l-68-325c-37-179-70-337-73-352l-5-28h277c297,0,357,7,472,53c100,41,170,88,250,167
		c138,138,199,280,207,487c7,146-5,219-52,320c-68,147-180,257-352,346c-48,24-245,116-438,202c-192,87-375,169-405,184l-55,26
		l739,5l739,5l74,345c40,190,73,348,73,353C4058.3,4293,2413.3,4290,2359.3,4279z"/>
	<path class="st0" d="M1553.3,2478c-3-13-34-162-70-333c-36-170-67-320-70-332c-5-23-4-23,90-23c90,0,95,1,100,23
		c3,12,34,162,70,332c36,171,67,320,70,333c5,22,4,22-90,22C1563.3,2500,1558.3,2499,1553.3,2478z"/>
	<path class="st0" d="M1884.3,2483c-5-18-146-681-146-689c0-2,62-4,138-4h137l73,348c40,191,73,350,72,355c0,4-60,7-134,7
		C1904.3,2500,1889.3,2498,1884.3,2483z"/>
	<path class="st0" d="M2264.3,2483c-5-18-146-682-146-689c0-3,78-3,173-2l172,3l67,315c37,173,70,332,73,353l7,37h-170
		C2286.3,2500,2269.3,2498,2264.3,2483z"/>
</g>
</svg>
